<svg width="64" height="64" viewBox="0 0 64 64" fill="none" xmlns="http://www.w3.org/2000/svg">
<path d="M27.7434 31.8567L20.6874 51.3847C20.6531 51.4189 20.5522 51.53 20.3847 51.718L19.7434 52.292C19.5691 52.4324 19.3982 52.4676 19.2307 52.3973C19.0631 52.3271 18.952 52.2118 18.8974 52.0513L18.6667 51.2513C18.6325 51.1931 18.6547 51.0376 18.7334 50.7847L25.954 30.9333C26.2376 31.1489 26.5256 31.3351 26.818 31.492C27.1105 31.6493 27.4189 31.7709 27.7434 31.8567ZM27.282 26.0513C25.9829 24.7522 25.3334 23.1796 25.3334 21.3333C25.3334 19.5351 25.8949 18.0333 27.018 16.828C28.1411 15.6231 29.46 14.9402 30.9747 14.7793V9.02533C30.9747 8.72133 31.0694 8.47445 31.2587 8.28467C31.4485 8.09489 31.6956 8 32 8C32.3045 8 32.5516 8.09489 32.7414 8.28467C32.9307 8.47445 33.0254 8.72133 33.0254 9.02533V14.7793C34.54 14.9402 35.8589 15.6231 36.982 16.828C38.1051 18.0333 38.6667 19.5351 38.6667 21.3333C38.6667 23.1796 38.0171 24.7522 36.718 26.0513C35.4189 27.3504 33.8462 28 32 28C30.1538 28 28.5811 27.3504 27.282 26.0513ZM35.2694 24.6027C36.1667 23.7053 36.6154 22.6156 36.6154 21.3333C36.6154 20.0511 36.1667 18.9613 35.2694 18.064C34.372 17.1667 33.2822 16.718 32 16.718C30.7178 16.718 29.628 17.1667 28.7307 18.064C27.8334 18.9613 27.3847 20.0511 27.3847 21.3333C27.3847 22.6156 27.8334 23.7053 28.7307 24.6027C29.628 25.5 30.7178 25.9487 32 25.9487C33.2822 25.9487 34.372 25.5 35.2694 24.6027ZM36.2254 31.9233C36.516 31.8033 36.8187 31.6733 37.1334 31.5333C37.448 31.3933 37.73 31.1984 37.9794 30.9487L45.2154 50.7847C45.2358 50.8256 45.2529 50.9811 45.2667 51.2513L45.0514 52.0513C44.9967 52.2118 44.8856 52.3271 44.718 52.3973C44.5505 52.4676 44.3796 52.4324 44.2054 52.292L43.564 51.718C43.4991 51.6531 43.3982 51.542 43.2614 51.3847L36.2254 31.9233Z" fill="#F4F2EC"/>
</svg>
