<svg width="64" height="64" viewBox="0 0 64 64" fill="none" xmlns="http://www.w3.org/2000/svg">
<path d="M32.63 38.7847C35.0167 38.7847 37.07 38.0198 38.79 36.49C40.5096 34.9602 41.3694 33.0891 41.3694 30.8767C41.3694 29.01 40.7847 27.4169 39.6154 26.0973C38.4465 24.7778 36.9885 24.118 35.2414 24.118C33.7849 24.118 32.5267 24.5838 31.4667 25.5153C30.4067 26.4469 29.8767 27.5913 29.8767 28.9487C29.8767 29.5349 29.9929 30.1369 30.2254 30.7547C30.4582 31.3729 30.8174 31.8973 31.3027 32.328C31.5862 32.612 31.8778 32.7384 32.1774 32.7073C32.4769 32.6762 32.7149 32.5649 32.8914 32.3733C33.0682 32.1818 33.1827 31.9589 33.2347 31.7047C33.2867 31.4504 33.1931 31.2036 32.954 30.964C32.6976 30.7076 32.4625 30.4024 32.2487 30.0487C32.0349 29.6949 31.928 29.33 31.928 28.954C31.928 28.3042 32.2067 27.6889 32.764 27.108C33.3214 26.5267 34.1471 26.236 35.2414 26.236C36.3316 26.236 37.2862 26.6642 38.1054 27.5207C38.924 28.3771 39.3334 29.518 39.3334 30.9433C39.3334 32.51 38.7178 33.8691 37.4867 35.0207C36.2556 36.1727 34.6509 36.7487 32.6727 36.7487C30.482 36.7487 28.5916 35.8742 27.0014 34.1253C25.4107 32.3769 24.6154 30.1864 24.6154 27.554C24.6154 26.4247 24.8111 25.3251 25.2027 24.2553C25.5942 23.1856 26.1471 22.1689 26.8614 21.2053C27.0702 20.9898 27.1805 20.7351 27.192 20.4413C27.204 20.1471 27.104 19.894 26.892 19.682C26.6805 19.47 26.4276 19.364 26.1334 19.364C25.8391 19.364 25.5998 19.4838 25.4154 19.7233C24.482 20.7864 23.7625 21.9844 23.2567 23.3173C22.7505 24.6507 22.4974 26.0407 22.4974 27.4873C22.4974 30.5949 23.4725 33.2547 25.4227 35.4667C27.3734 37.6787 29.7758 38.7847 32.63 38.7847ZM18.6667 45.9693C16.1334 43.6582 14.1667 41.0607 12.7667 38.1767C11.3667 35.2931 10.6667 32.3329 10.6667 29.296C10.6667 23.3804 12.7407 18.3522 16.8887 14.2113C21.0371 10.0704 26.0742 8 32 8C36.8036 8 41.1447 9.46244 45.0234 12.3873C48.902 15.3122 51.4174 19.0891 52.5694 23.718L55.4314 35.068C55.5642 35.6587 55.4565 36.1838 55.108 36.6433C54.7591 37.1033 54.2685 37.3333 53.636 37.3333H48V46.9747C48 47.9636 47.6318 48.826 46.8954 49.562C46.1594 50.2984 45.2969 50.6667 44.308 50.6667H37.3334V54.9747C37.3334 55.2649 37.2338 55.5084 37.0347 55.7053C36.8351 55.9018 36.588 56 36.2934 56C35.9987 56 35.7565 55.9018 35.5667 55.7053C35.3769 55.5084 35.282 55.2649 35.282 54.9747V50.4867C35.282 49.9382 35.4589 49.4893 35.8127 49.14C36.1665 48.7902 36.6049 48.6153 37.128 48.6153H44.308C44.7862 48.6153 45.1794 48.4616 45.4874 48.154C45.7949 47.846 45.9487 47.4529 45.9487 46.9747V37.128C45.9487 36.6049 46.1256 36.1664 46.4794 35.8127C46.8331 35.4589 47.2716 35.282 47.7947 35.282H53.3434L50.6 24.154C49.5676 19.9456 47.3027 16.5429 43.8054 13.946C40.3076 11.3496 36.3725 10.0513 32 10.0513C26.6427 10.0513 22.0898 11.9089 18.3414 15.624C14.5925 19.3387 12.718 23.8709 12.718 29.2207C12.718 32.0064 13.2858 34.6324 14.4214 37.0987C15.5574 39.5649 17.1485 41.7458 19.1947 43.6413L20.718 45.092V54.9747C20.718 55.2649 20.6182 55.5084 20.4187 55.7053C20.2196 55.9018 19.9727 56 19.678 56C19.3834 56 19.1411 55.9018 18.9514 55.7053C18.7616 55.5084 18.6667 55.2649 18.6667 54.9747V45.9693Z" fill="#F4F2EC"/>
</svg>
