<svg width="64" height="64" viewBox="0 0 64 64" fill="none" xmlns="http://www.w3.org/2000/svg">
<path d="M35.8667 13.4252C34.7045 13.4252 33.7054 12.9988 32.8694 12.1459C32.0334 11.293 31.6154 10.2854 31.6154 9.12322C31.6154 7.92633 32.0334 6.91011 32.8694 6.07456C33.7054 5.23856 34.7045 4.82056 35.8667 4.82056C37.0632 4.82056 38.0794 5.23856 38.9154 6.07456C39.7514 6.91011 40.1694 7.92633 40.1694 9.12322C40.1694 10.2854 39.7514 11.293 38.9154 12.1459C38.0794 12.9988 37.0632 13.4252 35.8667 13.4252ZM45.6334 35.1612C45.4676 34.9954 45.3847 34.7963 45.3847 34.5639V32.8766C43.2785 31.7041 41.3854 30.429 39.7054 29.0512C38.0249 27.6734 36.4532 25.8119 34.99 23.4666C34.0465 25.5932 33.3447 27.8154 32.8847 30.1332C32.4247 32.451 32.2905 34.4579 32.482 36.1539L38.0874 45.7279C38.1523 45.8372 38.2181 45.9834 38.2847 46.1666C38.3514 46.3497 38.3847 46.5181 38.3847 46.6719V59.4872C38.3847 59.7912 38.2814 60.0381 38.0747 60.2279C37.8676 60.4177 37.6205 60.5126 37.3334 60.5126C37.0463 60.5126 36.8078 60.4177 36.618 60.2279C36.4283 60.0381 36.3334 59.7912 36.3334 59.4872V46.7332L29.5387 38.0919L29.2974 48.2719C29.2974 48.4052 29.1812 48.7608 28.9487 49.3386L20.7387 59.6306C20.5538 59.8701 20.3316 60.0172 20.072 60.0719C19.812 60.1266 19.5625 60.0615 19.3234 59.8766C19.118 59.6921 18.9965 59.4528 18.9587 59.1586C18.9214 58.8648 18.9949 58.6152 19.1794 58.4099L27.0667 48.3332L25.6614 37.4459C25.3676 34.9983 25.4216 32.3343 25.8234 29.4539C26.2247 26.5734 26.9178 23.9503 27.9027 21.5846L19.7434 26.4459V33.4359C19.7434 33.7399 19.6485 33.9868 19.4587 34.1766C19.2694 34.3663 19.0225 34.4612 18.718 34.4612C18.4136 34.4612 18.1665 34.3663 17.9767 34.1766C17.7869 33.9868 17.692 33.7399 17.692 33.4359V26.3232C17.692 26.0019 17.7725 25.6941 17.9334 25.3999C18.0943 25.1057 18.3132 24.8697 18.59 24.6919L28.3127 18.8919C28.9656 18.5159 29.5767 18.2254 30.146 18.0206C30.7154 17.8152 31.2598 17.7126 31.7794 17.7126C32.7403 17.7126 33.6216 18.0681 34.4234 18.7792C35.2247 19.4903 36.0016 20.5894 36.754 22.0766C37.9505 24.2921 39.2958 26.047 40.79 27.3412C42.2838 28.635 44.1676 29.8648 46.4414 31.0306C46.684 30.6479 47.0352 30.3548 47.4947 30.1512C47.9547 29.9477 48.4258 29.8459 48.908 29.8459C49.896 29.8459 50.7523 30.2057 51.4767 30.9252C52.2016 31.6452 52.564 32.4821 52.564 33.4359V59.6152C52.564 59.8819 52.4812 60.0981 52.3154 60.2639C52.1496 60.4297 51.9418 60.5126 51.692 60.5126C51.4427 60.5126 51.2352 60.4297 51.0694 60.2639C50.9036 60.0981 50.8207 59.8819 50.8207 59.6152V33.4359C50.8207 32.9368 50.6378 32.5043 50.272 32.1386C49.9063 31.7728 49.4738 31.5899 48.9747 31.5899C48.4752 31.5899 48.0425 31.7728 47.6767 32.1386C47.3109 32.5043 47.128 32.9368 47.128 33.4359V34.5639C47.128 34.7963 47.0452 34.9954 46.8794 35.1612C46.7136 35.327 46.506 35.4099 46.2567 35.4099C46.0069 35.4099 45.7992 35.327 45.6334 35.1612Z" fill="#F4F2EC"/>
</svg>
