<svg width="64" height="64" viewBox="0 0 64 64" fill="none" xmlns="http://www.w3.org/2000/svg">
<path d="M23.8053 56C21.624 56 19.576 55.5958 17.6613 54.7873C15.7471 53.9789 14.06 52.8447 12.6 51.3847C11.1502 49.9349 10.0211 48.2553 9.21267 46.346C8.40422 44.4367 8 42.3862 8 40.1947C8 37.0493 8.83667 34.164 10.51 31.5387C12.1838 28.9129 14.4856 26.9916 17.4153 25.7747C18.2358 23.8738 19.3538 22.2071 20.7693 20.7747C22.1844 19.3418 23.8529 18.222 25.7747 17.4153C27.0258 14.4993 28.9102 12.2011 31.428 10.5207C33.9462 8.84022 36.8736 8 40.21 8C42.3913 8 44.4367 8.40422 46.346 9.21267C48.2553 10.0211 49.9349 11.1553 51.3847 12.6153C52.8002 14.1096 53.9233 15.8002 54.754 17.6873C55.5847 19.5744 56 21.6087 56 23.79C56 27.0789 55.2042 29.9669 53.6127 32.454C52.0211 34.9411 49.6784 36.8649 46.5847 38.2253C45.7642 40.1809 44.6573 41.8469 43.264 43.2233C41.8711 44.5993 40.1916 45.7198 38.2253 46.5847C37.0084 49.5007 35.1324 51.7989 32.5973 53.4793C30.0622 55.1598 27.1316 56 23.8053 56ZM23.908 53.9487C26.1471 53.9487 28.3769 53.3787 30.5973 52.2387C32.8178 51.0982 34.4887 49.4751 35.61 47.3693C32.81 47.9538 30.1322 47.8469 27.5767 47.0487C25.0211 46.2504 22.7998 44.9471 20.9127 43.1387C19.0598 41.2618 17.7367 39.0516 16.9433 36.508C16.1504 33.964 16.0462 31.292 16.6307 28.492C14.5489 29.6818 12.9318 31.3529 11.7793 33.5053C10.6273 35.6573 10.0513 37.8871 10.0513 40.1947C10.0513 42.1262 10.4069 43.9247 11.118 45.59C11.8291 47.2549 12.8171 48.7147 14.082 49.9693C15.3811 51.224 16.8607 52.2009 18.5207 52.9C20.1802 53.5991 21.976 53.9487 23.908 53.9487ZM32 45.7387C34.7862 45.7387 37.2102 45.0685 39.272 43.728C41.3333 42.388 42.8496 40.8649 43.8207 39.1587C41.0207 39.7436 38.3453 39.6318 35.7947 38.8233C33.2444 38.0144 31.048 36.6836 29.2053 34.8307C27.3182 32.9333 25.9729 30.7153 25.1693 28.1767C24.3658 25.6384 24.2787 22.9693 24.908 20.1693C22.9249 21.448 21.3384 23.0642 20.1487 25.018C18.9589 26.9718 18.364 29.2991 18.364 32C18.364 33.8871 18.7111 35.6631 19.4053 37.328C20.0991 38.9929 21.0784 40.458 22.3433 41.7233C23.598 43.0122 25.0493 44.0036 26.6973 44.6973C28.3453 45.3916 30.1129 45.7387 32 45.7387ZM40.4253 37.446C41.2151 37.446 41.9904 37.3769 42.7513 37.2387C43.5118 37.1 44.3024 36.87 45.1233 36.5487C46.0567 33.8922 46.2036 31.3204 45.564 28.8333C44.9249 26.3462 43.6736 24.1711 41.81 22.308C40.046 20.5436 37.8469 19.328 35.2127 18.6613C32.5784 17.9947 29.9931 18.1007 27.4567 18.9793C27.2002 19.7349 27.0078 20.4956 26.8793 21.2613C26.7513 22.0271 26.6873 22.87 26.6873 23.79C26.6873 25.6567 27.0429 27.4224 27.754 29.0873C28.4651 30.7522 29.4531 32.2222 30.718 33.4973C31.9829 34.8169 33.4478 35.8049 35.1127 36.4613C36.7776 37.1178 38.5484 37.446 40.4253 37.446ZM47.6 35.5387C49.5898 34.352 51.1453 32.8202 52.2667 30.9433C53.388 29.0664 53.9487 26.682 53.9487 23.79C53.9487 21.9131 53.6018 20.1447 52.908 18.4847C52.2138 16.8247 51.2171 15.3622 49.918 14.0973C48.6429 12.788 47.1753 11.7862 45.5153 11.092C43.8553 10.3982 42.0869 10.0513 40.21 10.0513C37.6562 10.0513 35.3793 10.6231 33.3793 11.7667C31.3793 12.9102 29.6853 14.4991 28.2973 16.5333C31.0973 15.9489 33.8 16.0609 36.4053 16.8693C39.0102 17.6778 41.2667 19.0136 43.1747 20.8767C45.0822 22.7744 46.4513 24.9924 47.282 27.5307C48.1127 30.0693 48.2187 32.7387 47.6 35.5387Z" fill="#F4F2EC"/>
</svg>
