<svg width="64" height="64" viewBox="0 0 64 64" fill="none" xmlns="http://www.w3.org/2000/svg">
<path d="M34.292 13.2821L44.41 21.3335H51.1793C51.7664 21.3335 52.2722 21.5457 52.6967 21.9701C53.1211 22.3946 53.3333 22.9004 53.3333 23.4875V50.6668H10.6667V27.6921C10.6667 26.9335 10.9991 26.3806 11.664 26.0335C12.3289 25.6864 12.9775 25.7401 13.61 26.1948L19.282 30.4615L31.2253 13.7235C31.5987 13.1786 32.0835 12.8652 32.68 12.7835C33.2764 12.7021 33.8138 12.8684 34.292 13.2821ZM12.718 28.1028V39.2415L21.446 46.2415L32.1127 31.5081L51.282 46.4461V23.3848H43.6767L32.954 14.7588L19.754 33.3588L12.718 28.1028Z" fill="#F4F2EC"/>
</svg>
