<svg width="64" height="64" viewBox="0 0 64 64" fill="none" xmlns="http://www.w3.org/2000/svg">
<path d="M37.008 51.33C36.8969 51.15 36.8636 50.9289 36.908 50.6667L39.0973 35.6054H28.21C27.4513 35.6054 26.8984 35.2729 26.5513 34.608C26.2042 33.9427 26.2409 33.2938 26.6613 32.6614L41.2207 12.682C41.4118 12.494 41.5929 12.3863 41.764 12.3587C41.9351 12.3316 42.1147 12.3454 42.3027 12.4C42.4907 12.4547 42.6402 12.5729 42.7513 12.7547C42.8624 12.9369 42.8958 13.14 42.8513 13.364L40.6767 28.3794H51.6307C52.3644 28.3794 52.9027 28.7205 53.2453 29.4027C53.5876 30.0845 53.5484 30.7418 53.128 31.3747L38.5567 51.3474C38.4113 51.5363 38.2387 51.6529 38.0387 51.6974C37.8387 51.7418 37.6447 51.7367 37.4567 51.682C37.2687 51.6274 37.1191 51.51 37.008 51.33ZM11.692 45.8874C11.4018 45.8874 11.1582 45.7876 10.9613 45.588C10.7649 45.3889 10.6667 45.142 10.6667 44.8474C10.6667 44.5527 10.7649 44.3105 10.9613 44.1207C11.1582 43.9309 11.4018 43.836 11.692 43.836H29.6413C29.9831 43.836 30.2393 43.9407 30.41 44.15C30.5811 44.3589 30.6667 44.5889 30.6667 44.84C30.6667 45.0911 30.5811 45.3285 30.41 45.552C30.2393 45.7756 29.9831 45.8874 29.6413 45.8874H11.692ZM9.02533 33.0254C8.73511 33.0254 8.49156 32.9258 8.29467 32.7267C8.09822 32.5271 8 32.28 8 31.9854C8 31.6907 8.09822 31.4485 8.29467 31.2587C8.49156 31.0694 8.73511 30.9747 9.02533 30.9747H17.1233C17.4651 30.9747 17.7213 31.0791 17.892 31.288C18.0631 31.4974 18.1487 31.7276 18.1487 31.9787C18.1487 32.2298 18.0631 32.4671 17.892 32.6907C17.7213 32.9138 17.4651 33.0254 17.1233 33.0254H9.02533ZM14.308 20.1487C14.0173 20.1487 13.7736 20.0491 13.5767 19.85C13.3802 19.6505 13.282 19.4034 13.282 19.1087C13.282 18.814 13.3802 18.5718 13.5767 18.382C13.7736 18.1923 14.0173 18.0974 14.308 18.0974H26.646C26.9878 18.0974 27.2442 18.202 27.4153 18.4114C27.5864 18.6207 27.672 18.8507 27.672 19.1014C27.672 19.3525 27.5851 19.5898 27.4113 19.8134C27.238 20.0369 26.9778 20.1487 26.6307 20.1487H14.308Z" fill="#F4F2EC"/>
</svg>
