<svg width="64" height="64" viewBox="0 0 64 64" fill="none" xmlns="http://www.w3.org/2000/svg">
<path d="M24.4667 31.6459L30.672 25.4412L24.5947 19.3639L22.128 21.8819C21.9333 22.077 21.6975 22.1746 21.4207 22.1746C21.1438 22.1746 20.8907 22.0686 20.6613 21.8566C20.4324 21.6446 20.318 21.4086 20.318 21.1486C20.318 20.8886 20.4324 20.6441 20.6613 20.4152L23.1793 17.9486L17.0513 11.8359L10.846 18.0412L24.4667 31.6459ZM45.892 53.1026L52.0973 46.8819L45.9693 40.7539L43.5027 43.2719C43.3075 43.4666 43.0631 43.5639 42.7693 43.5639C42.4751 43.5639 42.222 43.4579 42.01 43.2459C41.798 43.0339 41.692 42.7981 41.692 42.5386C41.692 42.2786 41.8067 42.0341 42.036 41.8052L44.5027 39.3386L38.5433 33.3279L32.3387 39.5332L45.892 53.1026ZM12.5127 53.3333C11.9691 53.3333 11.5255 53.1615 11.182 52.8179C10.8384 52.4744 10.6667 52.0308 10.6667 51.4873V46.0919C10.6667 45.8252 10.7111 45.5895 10.8 45.3846C10.8889 45.1792 11.0273 44.9826 11.2153 44.7946L22.9847 33.0252L9.41533 19.4566C8.99844 19.0392 8.79244 18.5675 8.79733 18.0412C8.80266 17.5146 9.00866 17.0426 9.41533 16.6252L15.5693 10.3899C15.9862 9.97258 16.458 9.76392 16.9847 9.76392C17.5113 9.76392 17.9831 9.97258 18.4 10.3899L32.1027 24.0252L44.8413 11.2872C45.0702 11.0579 45.3093 10.8972 45.5587 10.8052C45.8084 10.7128 46.0667 10.6666 46.3333 10.6666C46.6 10.6666 46.8582 10.7128 47.108 10.8052C47.3573 10.8972 47.5964 11.0579 47.8253 11.2872L52.7127 16.3279C52.942 16.5572 53.0942 16.7966 53.1693 17.0459C53.2444 17.2957 53.282 17.5539 53.282 17.8206C53.282 18.0872 53.2444 18.3368 53.1693 18.5692C53.0942 18.8017 52.942 19.0324 52.7127 19.2612L40.0767 31.8972L53.61 45.5332C54.0273 45.9501 54.236 46.4306 54.236 46.9746C54.236 47.5181 54.0273 47.9813 53.61 48.3639L47.4413 54.5692C47.024 54.9861 46.5435 55.1946 46 55.1946C45.4564 55.1946 44.9931 54.9861 44.61 54.5692L30.99 40.9999L19.2053 52.7846C19.0173 52.9726 18.8207 53.111 18.6153 53.1999C18.4104 53.2888 18.1747 53.3333 17.908 53.3333H12.5127ZM12.718 51.2819H17.7433L43.9947 25.0152L38.9693 19.9899L12.718 46.2566V51.2819ZM41.4567 22.4766L38.9693 19.9899L43.9947 25.0152L41.4567 22.4766Z" fill="#F4F2EC"/>
</svg>
