<svg width="64" height="64" viewBox="0 0 64 64" fill="none" xmlns="http://www.w3.org/2000/svg">
<path d="M26.8 55.3666C25.0703 54.9444 23.4174 54.3333 21.8414 53.5333C20.0667 54.4391 18.3956 55.0682 16.828 55.4206C15.2605 55.7726 13.5485 55.9657 11.692 56C11.3983 56 11.1538 55.9015 10.9587 55.7046C10.764 55.5077 10.6667 55.2637 10.6667 54.9726C10.6667 54.6797 10.7645 54.4386 10.96 54.2493C11.156 54.0604 11.4 53.9602 11.692 53.9486C12.5689 53.9308 13.4156 53.87 14.232 53.766C15.0485 53.662 15.8634 53.4928 16.6767 53.2586C17.4905 53.0248 18.2871 52.7328 19.0667 52.3826C19.8463 52.0328 20.6156 51.5924 21.3747 51.0613C21.5187 50.9724 21.6627 50.928 21.8067 50.928C21.9511 50.928 22.1183 50.9724 22.308 51.0613C23.7507 52.0186 25.2925 52.7084 26.9334 53.1306C28.5743 53.5528 30.2289 53.764 31.8974 53.764C33.5658 53.764 35.2205 53.5528 36.8614 53.1306C38.5027 52.7084 40.0447 52.0186 41.4874 51.0613C41.6771 50.9724 41.8411 50.928 41.9794 50.928C42.118 50.928 42.2823 50.9724 42.472 51.0613C43.2649 51.5826 44.0512 52.0293 44.8307 52.4013C45.6103 52.7728 46.3983 53.0646 47.1947 53.2766C47.9916 53.4886 48.8156 53.6502 49.6667 53.7613C50.5178 53.8724 51.3983 53.9348 52.308 53.9486C52.6103 53.9606 52.8567 54.0637 53.0474 54.258C53.238 54.4526 53.3334 54.6937 53.3334 54.9813C53.3334 55.2688 53.236 55.5106 53.0414 55.7066C52.8463 55.9022 52.6018 56 52.308 56C50.4116 55.9528 48.6698 55.7651 47.0827 55.4366C45.496 55.1077 43.7916 54.4733 41.9694 53.5333C40.3831 54.3435 38.7249 54.9573 36.9947 55.3746C35.2649 55.7915 33.5658 56 31.8974 56C30.2289 56 28.5298 55.7888 26.8 55.3666ZM31.9567 47.1946C30.5669 47.1946 29.1225 46.8331 27.6234 46.11C26.1243 45.3868 24.2207 43.7246 21.9127 41.1233C20.8256 42.3131 19.794 43.3026 18.818 44.092C17.842 44.8817 16.8805 45.5108 15.9334 45.9793C15.3351 46.3726 14.7129 46.3975 14.0667 46.054C13.4205 45.7104 13.0034 45.1882 12.8154 44.4873L9.85803 33.878C9.75092 33.4411 9.80115 33.0017 10.0087 32.56C10.2167 32.1186 10.5609 31.8191 11.0414 31.6613L14.1947 30.5946V17.7233C14.1947 16.7077 14.5563 15.8384 15.2794 15.1153C16.0025 14.3922 16.8718 14.0306 17.8874 14.0306H26.9434V9.83062C26.9434 9.30751 27.1287 8.86906 27.4994 8.51528C27.87 8.16151 28.3003 7.98462 28.79 7.98462H35.0054C35.4951 7.98462 35.9251 8.16151 36.2954 8.51528C36.666 8.86906 36.8514 9.30751 36.8514 9.83062V14.0306H45.908C46.9231 14.0306 47.7923 14.3922 48.5154 15.1153C49.2385 15.8384 49.6 16.7077 49.6 17.7233V30.5946L52.754 31.6613C53.234 31.8191 53.578 32.1186 53.786 32.56C53.9936 33.0017 54.0449 33.4424 53.94 33.882L51.046 44.5386C50.858 45.2395 50.4496 45.7446 49.8207 46.054C49.1914 46.3633 48.5605 46.3435 47.928 45.9946C47.0049 45.5262 46.058 44.9031 45.0874 44.1253C44.1163 43.3475 43.07 42.3468 41.9487 41.1233C39.6069 43.7246 37.7036 45.3868 36.2387 46.11C34.7738 46.8331 33.3465 47.1946 31.9567 47.1946ZM16.246 17.518V29.892L30.7487 25.2873C31.1043 25.1642 31.4871 25.1 31.8974 25.0946C32.3076 25.0897 32.6905 25.154 33.046 25.2873L47.5487 29.908V17.518C47.5487 17.1077 47.4034 16.7657 47.1127 16.492C46.822 16.2186 46.4716 16.082 46.0614 16.082H17.7334C17.3231 16.082 16.9727 16.2186 16.682 16.492C16.3914 16.7657 16.246 17.1077 16.246 17.518ZM31.8974 27.1026L12.0414 33.492L14.9334 44.4C16.0991 43.8017 17.1103 43.0762 17.9667 42.2233C18.8231 41.37 19.6838 40.4544 20.5487 39.4766C20.914 39.0322 21.3711 38.81 21.92 38.81C22.4689 38.81 22.9434 39.0204 23.3434 39.4413C24.5229 40.8324 25.7965 42.1306 27.164 43.336C28.5316 44.5408 30.1547 45.1433 32.0334 45.1433C33.8756 45.1433 35.4527 44.5408 36.7647 43.336C38.0771 42.1306 39.3403 40.8324 40.554 39.4413C40.9065 39.0115 41.3685 38.7988 41.94 38.8033C42.512 38.8077 42.9816 39.0322 43.3487 39.4766C44.2034 40.41 45.064 41.3255 45.9307 42.2233C46.7974 43.1206 47.8085 43.8462 48.964 44.4L51.8567 33.492L31.8974 27.1026Z" fill="#F4F2EC"/>
</svg>
