<svg width="64" height="64" viewBox="0 0 64 64" fill="none" xmlns="http://www.w3.org/2000/svg">
<path d="M32.072 8.05128C35.1418 8.01706 37.4955 9.16239 39.1333 11.4873C40.7711 13.8122 42.2155 16.4464 43.4667 19.3899C44.5538 22.0051 45.6307 24.9495 46.6973 28.2233C47.764 31.4966 48.8829 34.7759 50.054 38.0613C51.2144 41.2137 52.4658 44.1822 53.808 46.9666C55.1498 49.7511 56.7027 52.1126 58.4667 54.0513C58.6853 54.3246 58.7947 54.6117 58.7947 54.9126C58.7947 55.2135 58.6853 55.4564 58.4667 55.6413C58.248 55.8257 57.966 55.9204 57.6207 55.9253C57.2753 55.9306 57.0042 55.8259 56.8073 55.6113C53.6331 52.7046 51.0409 49.6264 49.0307 46.3766C47.0204 43.1273 45.0142 40.4106 43.012 38.2266C41.4791 36.5199 39.8342 35.1639 38.0773 34.1586C36.3204 33.1537 34.3255 32.6684 32.0927 32.7026C29.8598 32.6684 27.858 33.1537 26.0873 34.1586C24.3162 35.1639 22.6747 36.5199 21.1627 38.2266C19.1395 40.4106 17.1229 43.1273 15.1127 46.3766C13.1024 49.6264 10.5102 52.7046 7.33598 55.6113C7.13954 55.8259 6.8771 55.9306 6.54865 55.9253C6.22065 55.9204 5.92998 55.8171 5.67665 55.6153C5.45798 55.4477 5.35732 55.2135 5.37465 54.9126C5.39154 54.6117 5.50932 54.3246 5.72798 54.0513C7.45821 52.1468 8.99421 49.7937 10.336 46.992C11.6778 44.1906 12.9289 41.2137 14.0893 38.0613C15.2604 34.7759 16.3793 31.5086 17.446 28.2593C18.5127 25.0099 19.5895 22.0535 20.6767 19.3899C21.906 16.4611 23.3449 13.8306 24.9933 11.4986C26.6422 9.16617 29.0018 8.01706 32.072 8.05128ZM26.1767 13.3359C24.7531 15.4915 23.5471 17.7813 22.5587 20.2053C20.8871 24.1195 19.4351 28.1613 18.2027 32.3306C16.9702 36.4999 15.5609 40.4735 13.9747 44.2513C15.0187 42.7748 16.0507 41.3391 17.0707 39.9439C18.0902 38.5488 19.1727 37.2582 20.318 36.0719C21.9762 34.3795 23.7564 33.0528 25.6587 32.0919C27.5613 31.1315 29.6991 30.6513 32.072 30.6513C34.4444 30.6513 36.582 31.1315 38.4847 32.0919C40.3873 33.0528 42.1847 34.3795 43.8767 36.0719C44.9878 37.2582 46.0533 38.5488 47.0733 39.9439C48.0929 41.3391 49.1249 42.7748 50.1693 44.2513C48.5831 40.4735 47.1738 36.4999 45.9413 32.3306C44.7084 28.1613 43.2733 24.1195 41.636 20.2053C40.6138 17.7813 39.3907 15.4915 37.9667 13.3359C36.5427 11.1804 34.5778 10.1026 32.072 10.1026C29.5658 10.1026 27.6007 11.1804 26.1767 13.3359Z" fill="#F4F2EC"/>
</svg>
